<?xml version="1.0" encoding="utf-8"?>
<svg width="93" height="40" viewBox="0 0 93 40" fill="none" xmlns="http://www.w3.org/2000/svg">
  <path font-family="Poppins" font-size="81" font-style="normal" font-weight="normal" style="stroke: none; stroke-width: 1; stroke-dasharray: none; stroke-linecap: butt; stroke-dashoffset: 0; stroke-linejoin: miter; stroke-miterlimit: 4; fill-rule: nonzero; opacity: 1; white-space: pre; fill: rgb(29, 37, 91); transform-origin: 47.593px 28.813px;" d="M 31.859 35.467 C 31.019 35.468 30.267 35.325 29.603 35.04 C 28.94 34.759 28.42 34.365 28.042 33.86 C 27.665 33.359 27.47 32.778 27.456 32.114 L 29.228 32.114 C 29.29 32.683 29.535 33.162 29.968 33.547 C 30.399 33.937 31.031 34.132 31.859 34.132 C 32.649 34.132 33.272 33.941 33.731 33.565 C 34.186 33.189 34.415 32.705 34.415 32.114 C 34.415 31.65 34.281 31.276 34.01 30.986 C 33.743 30.696 33.408 30.479 33.008 30.329 C 32.606 30.176 32.063 30.014 31.382 29.841 C 30.543 29.632 29.87 29.425 29.365 29.214 C 28.857 29.007 28.428 28.679 28.069 28.237 C 27.708 27.791 27.529 27.191 27.529 26.437 C 27.529 25.779 27.706 25.192 28.057 24.684 C 28.412 24.175 28.908 23.781 29.545 23.502 C 30.183 23.225 30.917 23.086 31.746 23.086 C 32.938 23.085 33.916 23.369 34.676 23.938 C 35.437 24.505 35.866 25.256 35.965 26.193 L 34.139 26.194 C 34.078 25.732 33.823 25.324 33.371 24.97 C 32.922 24.618 32.325 24.44 31.581 24.44 C 30.886 24.44 30.321 24.611 29.884 24.952 C 29.445 25.293 29.227 25.774 29.227 26.387 C 29.227 26.825 29.358 27.183 29.618 27.462 C 29.878 27.742 30.205 27.953 30.588 28.095 C 30.97 28.241 31.509 28.405 32.201 28.592 C 33.043 28.811 33.718 29.027 34.23 29.24 C 34.741 29.455 35.181 29.785 35.546 30.23 C 35.909 30.677 36.094 31.282 36.094 32.048 C 36.094 32.636 35.929 33.191 35.601 33.711 C 35.27 34.233 34.785 34.655 34.139 34.981 C 33.496 35.302 32.734 35.467 31.859 35.467 Z M 38.537 22.495 L 40.199 22.494 L 40.202 35.344 L 38.54 35.345 L 38.537 22.495 Z M 43.885 24.282 C 43.572 24.282 43.302 24.177 43.084 23.968 C 42.866 23.76 42.755 23.506 42.755 23.206 C 42.755 22.903 42.866 22.65 43.083 22.44 C 43.301 22.232 43.57 22.127 43.885 22.127 C 44.19 22.127 44.449 22.232 44.666 22.44 C 44.876 22.65 44.983 22.903 44.983 23.206 C 44.983 23.506 44.876 23.76 44.666 23.968 C 44.45 24.177 44.193 24.282 43.885 24.282 Z M 43.03 25.827 L 44.691 25.827 L 44.692 35.344 L 43.034 35.344 L 43.03 25.827 Z M 46.903 30.566 C 46.903 29.584 47.109 28.724 47.521 27.989 C 47.936 27.253 48.513 26.683 49.246 26.275 C 49.984 25.872 50.826 25.67 51.776 25.669 C 53.007 25.669 54.02 25.954 54.814 26.521 C 55.612 27.087 56.14 27.873 56.396 28.88 L 54.607 28.88 C 54.435 28.302 54.104 27.845 53.612 27.507 C 53.12 27.175 52.506 27.007 51.776 27.007 C 50.826 27.008 50.06 27.317 49.474 27.937 C 48.892 28.556 48.598 29.432 48.598 30.566 C 48.6 31.713 48.893 32.598 49.476 33.221 C 50.06 33.848 50.827 34.161 51.776 34.161 C 52.507 34.161 53.117 33.997 53.604 33.675 C 54.09 33.349 54.425 32.886 54.607 32.285 L 56.397 32.285 C 56.127 33.256 55.593 34.036 54.791 34.62 C 53.986 35.205 52.984 35.497 51.776 35.497 C 50.827 35.497 49.985 35.297 49.248 34.889 C 48.514 34.485 47.936 33.911 47.522 33.172 C 47.109 32.431 46.903 31.564 46.903 30.566 Z M 67.733 30.214 C 67.733 30.516 67.716 30.834 67.678 31.171 L 59.681 31.174 C 59.745 32.11 60.082 32.844 60.693 33.369 C 61.312 33.895 62.058 34.16 62.932 34.16 C 63.651 34.16 64.25 34 64.732 33.682 C 65.214 33.361 65.55 32.936 65.744 32.404 L 67.532 32.404 C 67.268 33.317 66.731 34.064 65.926 34.634 C 65.125 35.208 64.127 35.494 62.934 35.494 C 61.984 35.494 61.136 35.292 60.387 34.888 C 59.637 34.483 59.051 33.907 58.625 33.162 C 58.198 32.414 57.986 31.548 57.986 30.564 C 57.984 29.58 58.193 28.718 58.604 27.977 C 59.018 27.236 59.598 26.665 60.347 26.267 C 61.096 25.868 61.957 25.668 62.932 25.668 C 63.882 25.667 64.722 25.863 65.453 26.257 C 66.183 26.649 66.748 27.191 67.141 27.882 C 67.534 28.57 67.733 29.347 67.733 30.214 Z M 66.02 29.885 C 66.02 29.283 65.878 28.766 65.598 28.331 C 65.319 27.898 64.937 27.567 64.456 27.342 C 63.976 27.118 63.442 27.006 62.858 27.006 C 62.018 27.006 61.303 27.26 60.715 27.769 C 60.125 28.279 59.786 28.984 59.703 29.886 L 66.02 29.885 Z"/>
  <path font-family="Poppins" font-size="79" font-style="normal" font-weight="normal" style="stroke: none; stroke-width: 1; stroke-dasharray: none; stroke-linecap: butt; stroke-dashoffset: 0; stroke-linejoin: miter; stroke-miterlimit: 4; fill-rule: nonzero; opacity: 1; white-space: pre; fill: rgb(29, 37, 91);" d="M 37.388 9.509 L 35.599 9.509 C 35.284 8.766 34.824 8.19 34.224 7.782 C 33.622 7.373 32.923 7.17 32.127 7.17 C 31.329 7.17 30.607 7.373 29.97 7.782 C 29.329 8.19 28.827 8.774 28.459 9.536 C 28.092 10.298 27.909 11.179 27.909 12.18 C 27.909 13.178 28.092 14.055 28.459 14.811 C 28.827 15.566 29.329 16.148 29.97 16.557 C 30.607 16.966 31.329 17.17 32.127 17.17 C 33.241 17.17 34.158 16.797 34.879 16.053 C 35.599 15.312 36.022 14.308 36.142 13.038 L 31.585 13.038 L 31.585 11.684 L 37.731 11.684 L 37.731 12.965 C 37.645 14.014 37.349 14.973 36.847 15.845 C 36.344 16.715 35.684 17.404 34.863 17.91 C 34.043 18.417 33.132 18.67 32.127 18.67 C 31.064 18.67 30.096 18.393 29.221 17.837 C 28.347 17.283 27.658 16.512 27.148 15.524 C 26.64 14.537 26.387 13.423 26.387 12.18 C 26.387 10.937 26.64 9.817 27.148 8.824 C 27.658 7.831 28.347 7.057 29.221 6.503 C 30.096 5.949 31.064 5.669 32.127 5.669 C 33.338 5.669 34.413 6.005 35.348 6.677 C 36.28 7.346 36.962 8.29 37.388 9.509 Z M 47.895 13.165 C 47.895 13.482 47.88 13.818 47.851 14.172 L 40.666 14.172 C 40.721 15.159 41.026 15.931 41.578 16.484 C 42.131 17.04 42.799 17.319 43.588 17.319 C 44.23 17.319 44.769 17.149 45.201 16.813 C 45.634 16.478 45.936 16.03 46.112 15.47 L 47.717 15.47 C 47.477 16.434 46.997 17.217 46.274 17.82 C 45.553 18.423 44.657 18.725 43.588 18.725 C 42.732 18.725 41.969 18.513 41.299 18.084 C 40.629 17.656 40.1 17.05 39.716 16.265 C 39.336 15.479 39.142 14.568 39.142 13.53 C 39.142 12.496 39.328 11.587 39.699 10.808 C 40.071 10.03 40.594 9.428 41.267 9.008 C 41.939 8.586 42.711 8.374 43.588 8.374 C 44.439 8.374 45.192 8.582 45.848 8.997 C 46.503 9.412 47.01 9.984 47.366 10.709 C 47.721 11.434 47.895 12.252 47.895 13.165 Z M 46.357 12.818 C 46.357 12.184 46.231 11.638 45.981 11.181 C 45.728 10.727 45.385 10.379 44.954 10.142 C 44.522 9.903 44.044 9.785 43.52 9.785 C 42.768 9.785 42.124 10.052 41.596 10.587 C 41.063 11.125 40.762 11.866 40.683 12.818 L 46.357 12.818 Z M 51.358 10.17 C 51.619 9.594 51.994 9.15 52.481 8.834 C 52.967 8.515 53.562 8.359 54.259 8.359 L 54.259 10.075 L 53.866 10.075 C 52.194 10.075 51.358 11.088 51.358 13.113 L 51.358 18.561 L 49.864 18.561 L 49.864 8.542 L 51.358 8.542 L 51.358 10.17 Z M 66.787 8.359 C 67.486 8.359 68.109 8.52 68.656 8.843 C 69.205 9.164 69.635 9.65 69.952 10.296 C 70.268 10.943 70.428 11.729 70.428 12.654 L 70.428 18.561 L 68.952 18.561 L 68.952 12.893 C 68.952 11.892 68.731 11.127 68.287 10.596 C 67.847 10.068 67.247 9.803 66.49 9.803 C 65.715 9.803 65.098 10.079 64.638 10.633 C 64.177 11.189 63.949 11.991 63.949 13.038 L 63.949 18.561 L 62.475 18.561 L 62.475 12.893 C 62.475 11.892 62.253 11.127 61.81 10.596 C 61.37 10.068 60.77 9.803 60.014 9.803 C 59.238 9.803 58.623 10.079 58.163 10.633 C 57.704 11.189 57.473 11.991 57.473 13.038 L 57.473 18.561 L 55.981 18.561 L 55.981 8.542 L 57.473 8.542 L 57.473 9.986 C 57.77 9.46 58.165 9.059 58.663 8.777 C 59.161 8.497 59.71 8.359 60.311 8.359 C 61.064 8.359 61.731 8.547 62.309 8.925 C 62.89 9.301 63.321 9.855 63.607 10.587 C 63.858 9.882 64.273 9.332 64.855 8.941 C 65.433 8.554 66.078 8.359 66.787 8.359 Z M 72.31 13.513 C 72.31 12.49 72.5 11.592 72.87 10.817 C 73.242 10.041 73.754 9.442 74.403 9.018 C 75.056 8.588 75.778 8.374 76.575 8.374 C 77.362 8.374 78.048 8.563 78.624 8.941 C 79.205 9.32 79.638 9.798 79.919 10.369 L 79.919 8.542 L 81.431 8.542 L 81.431 18.561 L 79.919 18.561 L 79.919 16.694 C 79.625 17.281 79.187 17.764 78.6 18.147 C 78.016 18.532 77.338 18.725 76.56 18.725 C 75.762 18.725 75.042 18.504 74.396 18.065 C 73.749 17.627 73.242 17.012 72.87 16.221 C 72.5 15.428 72.31 14.525 72.31 13.513 Z M 79.919 13.53 C 79.919 12.776 79.783 12.116 79.511 11.557 C 79.239 10.999 78.87 10.566 78.404 10.268 C 77.941 9.969 77.429 9.821 76.873 9.821 C 76.315 9.821 75.804 9.967 75.347 10.258 C 74.888 10.553 74.521 10.98 74.247 11.54 C 73.973 12.101 73.838 12.76 73.838 13.513 C 73.838 14.281 73.973 14.947 74.247 15.514 C 74.521 16.084 74.888 16.515 75.347 16.813 C 75.804 17.112 76.315 17.261 76.873 17.261 C 77.429 17.261 77.941 17.112 78.404 16.813 C 78.87 16.515 79.239 16.084 79.511 15.514 C 79.783 14.947 79.919 14.286 79.919 13.53 Z M 88.335 8.359 C 89.425 8.359 90.311 8.728 90.99 9.462 C 91.667 10.2 92.005 11.265 92.005 12.654 L 92.005 18.561 L 90.528 18.561 L 90.528 12.893 C 90.528 11.892 90.304 11.127 89.856 10.596 C 89.409 10.068 88.798 9.803 88.021 9.803 C 87.235 9.803 86.609 10.077 86.144 10.626 C 85.681 11.173 85.446 11.971 85.446 13.022 L 85.446 18.561 L 83.956 18.561 L 83.956 8.542 L 85.446 8.542 L 85.446 9.967 C 85.743 9.455 86.144 9.059 86.653 8.777 C 87.162 8.497 87.72 8.359 88.335 8.359 Z"/>
  <g transform="matrix(0.003491, 0, 0, -0.002822, 0.897407, 37.216825)" fill="#000000" stroke="none" style="">
    <path d="M3227 12748 c-328 -328 -608 -1345 -712 -2588 -55 -669 -59 -1565 -10 -2335 77 -1182 264 -2103 488 -2397 l35 -46 -14 -194 c-7 -106 -23 -323 -34 -483 -11 -159 -42 -609 -70 -1000 -27 -390 -72 -1036 -100 -1435 -28 -399 -59 -849 -70 -1000 -75 -1062 -72 -1003 -56 -1048 49 -137 196 -208 456 -219 281 -11 472 56 542 191 27 50 27 41 -2 676 -32 727 -71 1603 -150 3420 -17 382 -34 785 -40 895 -6 139 -6 220 2 265 13 77 -7 5827 -22 6235 -19 528 -44 831 -80 980 -37 148 -78 169 -163 83z" style="fill: rgb(29, 37, 91);"/>
    <path d="M162 11898 c-21 -416 -51 -903 -77 -1243 -29 -376 -48 -708 -71 -1225 -19 -417 -14 -507 32 -667 43 -147 105 -254 209 -359 74 -75 105 -99 175 -133 47 -22 115 -48 152 -58 62 -15 68 -18 68 -42 0 -14 -7 -168 -15 -341 -8 -173 -26 -562 -40 -865 -14 -302 -34 -743 -45 -980 -11 -236 -31 -677 -45 -980 -14 -302 -34 -741 -45 -975 -11 -234 -33 -722 -50 -1085 -17 -363 -39 -851 -50 -1085 -11 -234 -28 -627 -40 -875 -11 -247 -22 -469 -25 -493 -8 -67 13 -181 45 -249 72 -155 241 -242 468 -243 278 0 457 118 507 334 14 61 14 117 0 594 -34 1174 -51 1763 -75 2592 -11 382 -24 850 -30 1040 -6 190 -19 658 -30 1040 -27 941 -39 1347 -50 1720 -5 173 -13 442 -16 597 l-7 282 29 6 c149 33 248 88 360 200 78 78 97 104 142 195 102 208 120 331 103 714 -25 570 -54 1082 -71 1276 -22 240 -51 701 -78 1230 l-17 325 -58 3 -57 3 0 -1031 c0 -1136 4 -1072 -62 -1106 -42 -22 -111 -14 -144 17 -13 12 -29 39 -34 58 -5 20 -19 477 -30 1016 -12 539 -24 995 -26 1013 l-5 32 -68 0 -69 0 -6 -122 c-3 -68 -15 -537 -27 -1043 -24 -1043 -15 -963 -105 -978 -62 -11 -123 8 -141 43 -10 20 -13 247 -13 1063 l0 1037 -79 0 -79 0 -6 -182 c-3 -101 -11 -556 -16 -1013 -6 -456 -15 -846 -20 -866 -5 -19 -21 -46 -34 -58 -33 -31 -102 -39 -144 -17 -66 34 -62 -30 -62 1106 l0 1030 -58 0 -58 0 -12 -252z" style="fill: rgb(29, 37, 91);"/>
    <path d="M5169 11690 c-161 -29 -388 -169 -579 -360 -280 -278 -484 -653 -559 -1026 -59 -289 -40 -683 48 -1020 148 -564 490 -998 887 -1128 l52 -17 -4 -62 c-3 -34 -13 -264 -24 -512 -11 -247 -29 -641 -40 -875 -11 -234 -29 -625 -40 -870 -11 -245 -29 -636 -40 -870 -11 -234 -33 -722 -50 -1085 -17 -363 -39 -851 -50 -1085 -11 -234 -29 -623 -40 -865 -11 -242 -31 -679 -45 -972 -17 -364 -22 -547 -15 -580 37 -195 149 -305 352 -347 246 -51 496 20 597 168 73 109 81 166 70 516 -11 364 -24 829 -49 1700 -19 657 -27 942 -50 1730 -6 184 -19 652 -30 1040 -11 388 -25 856 -30 1040 -5 184 -19 650 -30 1035 -11 385 -21 744 -22 798 l-3 98 72 28 c462 180 808 718 908 1413 22 148 30 413 16 541 -41 402 -200 778 -463 1092 -268 322 -611 516 -839 475z" style="fill: rgb(29, 37, 91);"/>
  </g>
</svg>